<mxfile host="app.diagrams.net" modified="2024-04-08T01:44:56.623Z" agent="Mozilla/5.0 (X11; Ubuntu; Linux x86_64; rv:124.0) Gecko/20100101 Firefox/124.0" etag="edBoYgt0QRopA2BAOxKd" version="24.2.2" type="github">
  <diagram name="Page-1" id="HxJOHxct51R5SP-K5AXq">
    <mxGraphModel dx="1430" dy="873" grid="1" gridSize="10" guides="1" tooltips="1" connect="1" arrows="1" fold="1" page="1" pageScale="1" pageWidth="850" pageHeight="1100" math="0" shadow="0">
      <root>
        <mxCell id="0" />
        <mxCell id="1" parent="0" />
        <mxCell id="8--eTaPoQtmjOLlgzCsu-44" style="edgeStyle=orthogonalEdgeStyle;rounded=0;orthogonalLoop=1;jettySize=auto;html=1;exitX=0.5;exitY=0;exitDx=0;exitDy=0;strokeWidth=3;" edge="1" parent="1" source="8--eTaPoQtmjOLlgzCsu-1">
          <mxGeometry relative="1" as="geometry">
            <mxPoint x="110" y="120" as="targetPoint" />
          </mxGeometry>
        </mxCell>
        <mxCell id="8--eTaPoQtmjOLlgzCsu-1" value="LA" style="rounded=0;whiteSpace=wrap;html=1;fontSize=24;strokeWidth=3;" vertex="1" parent="1">
          <mxGeometry x="50" y="190" width="120" height="60" as="geometry" />
        </mxCell>
        <mxCell id="8--eTaPoQtmjOLlgzCsu-45" style="edgeStyle=orthogonalEdgeStyle;rounded=0;orthogonalLoop=1;jettySize=auto;html=1;exitX=0.5;exitY=0;exitDx=0;exitDy=0;strokeWidth=3;" edge="1" parent="1" source="8--eTaPoQtmjOLlgzCsu-2">
          <mxGeometry relative="1" as="geometry">
            <mxPoint x="700" y="120" as="targetPoint" />
          </mxGeometry>
        </mxCell>
        <mxCell id="8--eTaPoQtmjOLlgzCsu-2" value="LA" style="rounded=0;whiteSpace=wrap;html=1;fontSize=24;strokeWidth=3;" vertex="1" parent="1">
          <mxGeometry x="640" y="190" width="120" height="60" as="geometry" />
        </mxCell>
        <mxCell id="8--eTaPoQtmjOLlgzCsu-5" value="" style="group;strokeWidth=3;" vertex="1" connectable="0" parent="1">
          <mxGeometry x="365" y="460" width="80" height="120" as="geometry" />
        </mxCell>
        <mxCell id="8--eTaPoQtmjOLlgzCsu-3" value="&lt;div style=&quot;font-size: 25px;&quot;&gt;&lt;font style=&quot;font-size: 25px;&quot;&gt;D&lt;/font&gt;&lt;/div&gt;&lt;div style=&quot;font-size: 25px;&quot;&gt;&lt;font style=&quot;font-size: 25px;&quot;&gt;R&lt;/font&gt;&lt;/div&gt;&lt;div style=&quot;font-size: 25px;&quot;&gt;&lt;font style=&quot;font-size: 25px;&quot;&gt;&lt;font style=&quot;font-size: 25px;&quot;&gt;O&lt;/font&gt;&lt;font style=&quot;font-size: 25px;&quot;&gt;&lt;br&gt;&lt;/font&gt;&lt;/font&gt;&lt;/div&gt;" style="rounded=0;whiteSpace=wrap;html=1;strokeWidth=3;" vertex="1" parent="8--eTaPoQtmjOLlgzCsu-5">
          <mxGeometry width="80" height="120" as="geometry" />
        </mxCell>
        <mxCell id="8--eTaPoQtmjOLlgzCsu-4" value="" style="triangle;whiteSpace=wrap;html=1;strokeWidth=3;" vertex="1" parent="8--eTaPoQtmjOLlgzCsu-5">
          <mxGeometry y="45" width="20" height="30" as="geometry" />
        </mxCell>
        <mxCell id="8--eTaPoQtmjOLlgzCsu-8" style="edgeStyle=orthogonalEdgeStyle;rounded=0;orthogonalLoop=1;jettySize=auto;html=1;exitX=0.5;exitY=0;exitDx=0;exitDy=0;entryX=0.5;entryY=1;entryDx=0;entryDy=0;strokeWidth=3;" edge="1" parent="1" source="8--eTaPoQtmjOLlgzCsu-6" target="8--eTaPoQtmjOLlgzCsu-7">
          <mxGeometry relative="1" as="geometry" />
        </mxCell>
        <mxCell id="8--eTaPoQtmjOLlgzCsu-9" style="edgeStyle=orthogonalEdgeStyle;rounded=0;orthogonalLoop=1;jettySize=auto;html=1;exitX=1;exitY=0.5;exitDx=0;exitDy=0;entryX=0;entryY=0.5;entryDx=0;entryDy=0;strokeWidth=3;" edge="1" parent="1" source="8--eTaPoQtmjOLlgzCsu-6" target="8--eTaPoQtmjOLlgzCsu-4">
          <mxGeometry relative="1" as="geometry" />
        </mxCell>
        <mxCell id="8--eTaPoQtmjOLlgzCsu-6" value="&lt;font style=&quot;font-size: 23px;&quot;&gt;S&lt;/font&gt;" style="rounded=0;whiteSpace=wrap;html=1;strokeWidth=3;" vertex="1" parent="1">
          <mxGeometry x="170" y="600" width="40" height="40" as="geometry" />
        </mxCell>
        <mxCell id="8--eTaPoQtmjOLlgzCsu-16" style="edgeStyle=orthogonalEdgeStyle;rounded=0;orthogonalLoop=1;jettySize=auto;html=1;exitX=0.75;exitY=0;exitDx=0;exitDy=0;entryX=0.25;entryY=1;entryDx=0;entryDy=0;strokeWidth=3;" edge="1" parent="1" source="8--eTaPoQtmjOLlgzCsu-7" target="8--eTaPoQtmjOLlgzCsu-2">
          <mxGeometry relative="1" as="geometry" />
        </mxCell>
        <mxCell id="8--eTaPoQtmjOLlgzCsu-7" value="&lt;font style=&quot;font-size: 23px;&quot;&gt;S&lt;/font&gt;" style="rounded=0;whiteSpace=wrap;html=1;strokeWidth=3;" vertex="1" parent="1">
          <mxGeometry x="170" y="510" width="40" height="40" as="geometry" />
        </mxCell>
        <mxCell id="8--eTaPoQtmjOLlgzCsu-10" style="edgeStyle=orthogonalEdgeStyle;rounded=0;orthogonalLoop=1;jettySize=auto;html=1;exitX=0.5;exitY=0;exitDx=0;exitDy=0;entryX=0.5;entryY=1;entryDx=0;entryDy=0;strokeWidth=3;" edge="1" parent="1" source="8--eTaPoQtmjOLlgzCsu-11" target="8--eTaPoQtmjOLlgzCsu-12">
          <mxGeometry relative="1" as="geometry" />
        </mxCell>
        <mxCell id="8--eTaPoQtmjOLlgzCsu-11" value="&lt;font style=&quot;font-size: 23px;&quot;&gt;S&lt;/font&gt;" style="rounded=0;whiteSpace=wrap;html=1;strokeWidth=3;" vertex="1" parent="1">
          <mxGeometry x="600" y="600" width="40" height="40" as="geometry" />
        </mxCell>
        <mxCell id="8--eTaPoQtmjOLlgzCsu-13" style="edgeStyle=orthogonalEdgeStyle;rounded=0;orthogonalLoop=1;jettySize=auto;html=1;exitX=0;exitY=0.5;exitDx=0;exitDy=0;entryX=0.5;entryY=1;entryDx=0;entryDy=0;strokeWidth=3;" edge="1" parent="1" source="8--eTaPoQtmjOLlgzCsu-11" target="8--eTaPoQtmjOLlgzCsu-3">
          <mxGeometry relative="1" as="geometry">
            <mxPoint x="440" y="510" as="targetPoint" />
          </mxGeometry>
        </mxCell>
        <mxCell id="8--eTaPoQtmjOLlgzCsu-18" style="edgeStyle=orthogonalEdgeStyle;rounded=0;orthogonalLoop=1;jettySize=auto;html=1;exitX=0.25;exitY=0;exitDx=0;exitDy=0;entryX=0.75;entryY=1;entryDx=0;entryDy=0;strokeWidth=3;" edge="1" parent="1" source="8--eTaPoQtmjOLlgzCsu-12" target="8--eTaPoQtmjOLlgzCsu-1">
          <mxGeometry relative="1" as="geometry">
            <Array as="points">
              <mxPoint x="610" y="340" />
              <mxPoint x="140" y="340" />
            </Array>
          </mxGeometry>
        </mxCell>
        <mxCell id="8--eTaPoQtmjOLlgzCsu-12" value="&lt;font style=&quot;font-size: 23px;&quot;&gt;S&lt;/font&gt;" style="rounded=0;whiteSpace=wrap;html=1;strokeWidth=3;" vertex="1" parent="1">
          <mxGeometry x="600" y="510" width="40" height="40" as="geometry" />
        </mxCell>
        <mxCell id="8--eTaPoQtmjOLlgzCsu-14" style="edgeStyle=orthogonalEdgeStyle;rounded=0;orthogonalLoop=1;jettySize=auto;html=1;exitX=0.75;exitY=0;exitDx=0;exitDy=0;entryX=0.75;entryY=1;entryDx=0;entryDy=0;strokeWidth=3;" edge="1" parent="1" source="8--eTaPoQtmjOLlgzCsu-12" target="8--eTaPoQtmjOLlgzCsu-2">
          <mxGeometry relative="1" as="geometry">
            <Array as="points">
              <mxPoint x="630" y="440" />
              <mxPoint x="730" y="440" />
            </Array>
          </mxGeometry>
        </mxCell>
        <mxCell id="8--eTaPoQtmjOLlgzCsu-15" style="edgeStyle=orthogonalEdgeStyle;rounded=0;orthogonalLoop=1;jettySize=auto;html=1;exitX=0.25;exitY=0;exitDx=0;exitDy=0;entryX=0.25;entryY=1;entryDx=0;entryDy=0;strokeWidth=3;" edge="1" parent="1" source="8--eTaPoQtmjOLlgzCsu-7" target="8--eTaPoQtmjOLlgzCsu-1">
          <mxGeometry relative="1" as="geometry">
            <Array as="points">
              <mxPoint x="180" y="440" />
              <mxPoint x="80" y="440" />
            </Array>
          </mxGeometry>
        </mxCell>
        <mxCell id="8--eTaPoQtmjOLlgzCsu-40" style="edgeStyle=orthogonalEdgeStyle;rounded=0;orthogonalLoop=1;jettySize=auto;html=1;exitX=1;exitY=0.5;exitDx=0;exitDy=0;entryX=0;entryY=0.5;entryDx=0;entryDy=0;strokeWidth=3;" edge="1" parent="1" source="8--eTaPoQtmjOLlgzCsu-24" target="8--eTaPoQtmjOLlgzCsu-34">
          <mxGeometry relative="1" as="geometry" />
        </mxCell>
        <mxCell id="8--eTaPoQtmjOLlgzCsu-24" value="" style="ellipse;whiteSpace=wrap;html=1;aspect=fixed;strokeWidth=3;" vertex="1" parent="1">
          <mxGeometry x="280" y="190" width="20" height="20" as="geometry" />
        </mxCell>
        <mxCell id="8--eTaPoQtmjOLlgzCsu-32" style="edgeStyle=orthogonalEdgeStyle;rounded=0;orthogonalLoop=1;jettySize=auto;html=1;exitX=0;exitY=0.5;exitDx=0;exitDy=0;entryX=0.5;entryY=1;entryDx=0;entryDy=0;strokeWidth=3;" edge="1" parent="1" source="8--eTaPoQtmjOLlgzCsu-30" target="8--eTaPoQtmjOLlgzCsu-22">
          <mxGeometry relative="1" as="geometry" />
        </mxCell>
        <mxCell id="8--eTaPoQtmjOLlgzCsu-33" style="edgeStyle=orthogonalEdgeStyle;rounded=0;orthogonalLoop=1;jettySize=auto;html=1;exitX=1;exitY=0.5;exitDx=0;exitDy=0;entryX=0.5;entryY=1;entryDx=0;entryDy=0;strokeWidth=3;" edge="1" parent="1" source="8--eTaPoQtmjOLlgzCsu-30" target="8--eTaPoQtmjOLlgzCsu-26">
          <mxGeometry relative="1" as="geometry">
            <mxPoint x="540" y="290" as="targetPoint" />
          </mxGeometry>
        </mxCell>
        <mxCell id="8--eTaPoQtmjOLlgzCsu-30" value="&lt;font style=&quot;font-size: 23px;&quot;&gt;S&lt;/font&gt;" style="rounded=0;whiteSpace=wrap;html=1;strokeWidth=3;" vertex="1" parent="1">
          <mxGeometry x="385" y="390" width="40" height="40" as="geometry" />
        </mxCell>
        <mxCell id="8--eTaPoQtmjOLlgzCsu-31" style="edgeStyle=orthogonalEdgeStyle;rounded=0;orthogonalLoop=1;jettySize=auto;html=1;exitX=0.5;exitY=0;exitDx=0;exitDy=0;entryX=0.5;entryY=1;entryDx=0;entryDy=0;strokeWidth=3;" edge="1" parent="1" source="8--eTaPoQtmjOLlgzCsu-3" target="8--eTaPoQtmjOLlgzCsu-30">
          <mxGeometry relative="1" as="geometry" />
        </mxCell>
        <mxCell id="8--eTaPoQtmjOLlgzCsu-37" style="edgeStyle=orthogonalEdgeStyle;rounded=0;orthogonalLoop=1;jettySize=auto;html=1;exitX=0.5;exitY=1;exitDx=0;exitDy=0;strokeWidth=3;" edge="1" parent="1" source="8--eTaPoQtmjOLlgzCsu-34">
          <mxGeometry relative="1" as="geometry">
            <mxPoint x="301" y="680" as="targetPoint" />
            <Array as="points">
              <mxPoint x="351" y="430" />
              <mxPoint x="301" y="430" />
              <mxPoint x="301" y="650" />
            </Array>
          </mxGeometry>
        </mxCell>
        <mxCell id="8--eTaPoQtmjOLlgzCsu-34" value="&lt;font style=&quot;font-size: 23px;&quot;&gt;M&lt;/font&gt;" style="rounded=0;whiteSpace=wrap;html=1;strokeWidth=3;" vertex="1" parent="1">
          <mxGeometry x="331" y="180" width="40" height="40" as="geometry" />
        </mxCell>
        <mxCell id="8--eTaPoQtmjOLlgzCsu-39" style="edgeStyle=orthogonalEdgeStyle;rounded=0;orthogonalLoop=1;jettySize=auto;html=1;exitX=0.5;exitY=1;exitDx=0;exitDy=0;strokeWidth=3;" edge="1" parent="1" source="8--eTaPoQtmjOLlgzCsu-36">
          <mxGeometry relative="1" as="geometry">
            <mxPoint x="520" y="680" as="targetPoint" />
          </mxGeometry>
        </mxCell>
        <mxCell id="8--eTaPoQtmjOLlgzCsu-36" value="&lt;font style=&quot;font-size: 23px;&quot;&gt;M&lt;/font&gt;" style="rounded=0;whiteSpace=wrap;html=1;strokeWidth=3;" vertex="1" parent="1">
          <mxGeometry x="440" y="240" width="40" height="40" as="geometry" />
        </mxCell>
        <mxCell id="8--eTaPoQtmjOLlgzCsu-41" style="edgeStyle=orthogonalEdgeStyle;rounded=0;orthogonalLoop=1;jettySize=auto;html=1;exitX=0;exitY=0.25;exitDx=0;exitDy=0;entryX=1;entryY=0.5;entryDx=0;entryDy=0;strokeWidth=3;" edge="1" parent="1" source="8--eTaPoQtmjOLlgzCsu-26" target="8--eTaPoQtmjOLlgzCsu-34">
          <mxGeometry relative="1" as="geometry" />
        </mxCell>
        <mxCell id="8--eTaPoQtmjOLlgzCsu-42" style="edgeStyle=orthogonalEdgeStyle;rounded=0;orthogonalLoop=1;jettySize=auto;html=1;exitX=0;exitY=0.5;exitDx=0;exitDy=0;entryX=1;entryY=0.5;entryDx=0;entryDy=0;strokeWidth=3;" edge="1" parent="1" source="8--eTaPoQtmjOLlgzCsu-28" target="8--eTaPoQtmjOLlgzCsu-36">
          <mxGeometry relative="1" as="geometry" />
        </mxCell>
        <mxCell id="8--eTaPoQtmjOLlgzCsu-43" style="edgeStyle=orthogonalEdgeStyle;rounded=0;orthogonalLoop=1;jettySize=auto;html=1;exitX=1;exitY=0.75;exitDx=0;exitDy=0;entryX=0;entryY=0.5;entryDx=0;entryDy=0;strokeWidth=3;" edge="1" parent="1" source="8--eTaPoQtmjOLlgzCsu-22" target="8--eTaPoQtmjOLlgzCsu-36">
          <mxGeometry relative="1" as="geometry" />
        </mxCell>
        <mxCell id="8--eTaPoQtmjOLlgzCsu-28" value="" style="ellipse;whiteSpace=wrap;html=1;aspect=fixed;strokeWidth=3;" vertex="1" parent="1">
          <mxGeometry x="510" y="250" width="20" height="20" as="geometry" />
        </mxCell>
        <mxCell id="8--eTaPoQtmjOLlgzCsu-26" value="&lt;div style=&quot;font-size: 26px;&quot;&gt;&lt;font style=&quot;font-size: 26px;&quot;&gt;D&lt;/font&gt;&lt;/div&gt;&lt;div style=&quot;font-size: 26px;&quot;&gt;&lt;font style=&quot;font-size: 26px;&quot;&gt;R&lt;/font&gt;&lt;/div&gt;&lt;div style=&quot;font-size: 26px; line-height: 70%;&quot;&gt;&lt;font style=&quot;font-size: 26px;&quot;&gt;&lt;font style=&quot;font-size: 26px;&quot;&gt;O&lt;/font&gt;&lt;/font&gt;&lt;/div&gt;&lt;div style=&quot;font-size: 26px;&quot;&gt;&lt;font style=&quot;font-size: 26px;&quot;&gt;C&lt;br&gt;&lt;/font&gt;&lt;/div&gt;" style="rounded=0;whiteSpace=wrap;html=1;strokeWidth=3;" vertex="1" parent="1">
          <mxGeometry x="530" y="170" width="80" height="120" as="geometry" />
        </mxCell>
        <mxCell id="8--eTaPoQtmjOLlgzCsu-47" style="edgeStyle=orthogonalEdgeStyle;rounded=0;orthogonalLoop=1;jettySize=auto;html=1;exitX=1;exitY=0.5;exitDx=0;exitDy=0;startArrow=block;startFill=1;endArrow=none;endFill=0;strokeWidth=3;" edge="1" parent="1" source="8--eTaPoQtmjOLlgzCsu-27">
          <mxGeometry relative="1" as="geometry">
            <mxPoint x="630" y="120" as="targetPoint" />
            <Array as="points">
              <mxPoint x="630" y="230" />
            </Array>
          </mxGeometry>
        </mxCell>
        <mxCell id="8--eTaPoQtmjOLlgzCsu-27" value="" style="triangle;whiteSpace=wrap;html=1;flipH=1;strokeWidth=3;" vertex="1" parent="1">
          <mxGeometry x="590" y="215" width="20" height="30" as="geometry" />
        </mxCell>
        <mxCell id="8--eTaPoQtmjOLlgzCsu-22" value="&lt;div style=&quot;font-size: 26px;&quot;&gt;&lt;font style=&quot;font-size: 26px;&quot;&gt;D&lt;/font&gt;&lt;/div&gt;&lt;div style=&quot;font-size: 26px;&quot;&gt;&lt;font style=&quot;font-size: 26px;&quot;&gt;R&lt;/font&gt;&lt;/div&gt;&lt;div style=&quot;font-size: 26px; line-height: 70%;&quot;&gt;&lt;font style=&quot;font-size: 26px;&quot;&gt;&lt;font style=&quot;font-size: 26px;&quot;&gt;O&lt;/font&gt;&lt;/font&gt;&lt;/div&gt;&lt;div style=&quot;font-size: 26px;&quot;&gt;&lt;font style=&quot;font-size: 26px;&quot;&gt;C&lt;br&gt;&lt;/font&gt;&lt;/div&gt;" style="rounded=0;whiteSpace=wrap;html=1;strokeWidth=3;" vertex="1" parent="1">
          <mxGeometry x="200" y="170" width="80" height="120" as="geometry" />
        </mxCell>
        <mxCell id="8--eTaPoQtmjOLlgzCsu-46" style="edgeStyle=orthogonalEdgeStyle;rounded=0;orthogonalLoop=1;jettySize=auto;html=1;exitX=0;exitY=0.5;exitDx=0;exitDy=0;startArrow=block;startFill=1;endArrow=none;endFill=0;strokeWidth=3;" edge="1" parent="1" source="8--eTaPoQtmjOLlgzCsu-23">
          <mxGeometry relative="1" as="geometry">
            <mxPoint x="180" y="120" as="targetPoint" />
          </mxGeometry>
        </mxCell>
        <mxCell id="8--eTaPoQtmjOLlgzCsu-23" value="" style="triangle;whiteSpace=wrap;html=1;strokeWidth=3;" vertex="1" parent="1">
          <mxGeometry x="200" y="215" width="20" height="30" as="geometry" />
        </mxCell>
        <mxCell id="8--eTaPoQtmjOLlgzCsu-53" style="edgeStyle=orthogonalEdgeStyle;rounded=0;orthogonalLoop=1;jettySize=auto;html=1;entryX=0.5;entryY=1;entryDx=0;entryDy=0;strokeWidth=3;" edge="1" parent="1" target="8--eTaPoQtmjOLlgzCsu-6">
          <mxGeometry relative="1" as="geometry">
            <mxPoint x="190" y="680" as="sourcePoint" />
            <mxPoint x="189.71" y="650" as="targetPoint" />
          </mxGeometry>
        </mxCell>
        <mxCell id="8--eTaPoQtmjOLlgzCsu-54" style="edgeStyle=orthogonalEdgeStyle;rounded=0;orthogonalLoop=1;jettySize=auto;html=1;entryX=0.5;entryY=1;entryDx=0;entryDy=0;strokeWidth=3;" edge="1" parent="1">
          <mxGeometry relative="1" as="geometry">
            <mxPoint x="620" y="680" as="sourcePoint" />
            <mxPoint x="619.71" y="640" as="targetPoint" />
          </mxGeometry>
        </mxCell>
        <mxCell id="8--eTaPoQtmjOLlgzCsu-55" value="x_max" style="text;html=1;align=center;verticalAlign=middle;whiteSpace=wrap;rounded=0;fontSize=23;" vertex="1" parent="1">
          <mxGeometry x="70" y="90" width="60" height="30" as="geometry" />
        </mxCell>
        <mxCell id="8--eTaPoQtmjOLlgzCsu-57" value="&lt;div&gt;return_max&lt;/div&gt;" style="text;html=1;align=center;verticalAlign=middle;whiteSpace=wrap;rounded=0;fontSize=23;" vertex="1" parent="1">
          <mxGeometry x="180" y="90" width="60" height="30" as="geometry" />
        </mxCell>
        <mxCell id="8--eTaPoQtmjOLlgzCsu-58" value="x_min" style="text;html=1;align=center;verticalAlign=middle;whiteSpace=wrap;rounded=0;fontSize=23;" vertex="1" parent="1">
          <mxGeometry x="680" y="90" width="60" height="30" as="geometry" />
        </mxCell>
        <mxCell id="8--eTaPoQtmjOLlgzCsu-59" value="&lt;div&gt;return_min&lt;/div&gt;" style="text;html=1;align=center;verticalAlign=middle;whiteSpace=wrap;rounded=0;fontSize=23;" vertex="1" parent="1">
          <mxGeometry x="570" y="90" width="60" height="30" as="geometry" />
        </mxCell>
        <mxCell id="8--eTaPoQtmjOLlgzCsu-60" value="&lt;div&gt;x_a&lt;/div&gt;" style="text;html=1;align=center;verticalAlign=middle;whiteSpace=wrap;rounded=0;fontSize=23;" vertex="1" parent="1">
          <mxGeometry x="160" y="680" width="60" height="30" as="geometry" />
        </mxCell>
        <mxCell id="8--eTaPoQtmjOLlgzCsu-61" value="&lt;div&gt;sel_a&lt;/div&gt;" style="text;html=1;align=center;verticalAlign=middle;whiteSpace=wrap;rounded=0;fontSize=23;" vertex="1" parent="1">
          <mxGeometry x="271" y="680" width="60" height="30" as="geometry" />
        </mxCell>
        <mxCell id="8--eTaPoQtmjOLlgzCsu-62" value="&lt;div&gt;x_b&lt;/div&gt;" style="text;html=1;align=center;verticalAlign=middle;whiteSpace=wrap;rounded=0;fontSize=23;" vertex="1" parent="1">
          <mxGeometry x="484.5" y="680" width="60" height="30" as="geometry" />
        </mxCell>
        <mxCell id="8--eTaPoQtmjOLlgzCsu-63" value="&lt;div&gt;sel_b&lt;/div&gt;" style="text;html=1;align=center;verticalAlign=middle;whiteSpace=wrap;rounded=0;fontSize=23;" vertex="1" parent="1">
          <mxGeometry x="595.5" y="680" width="60" height="30" as="geometry" />
        </mxCell>
      </root>
    </mxGraphModel>
  </diagram>
</mxfile>
